<?xml version="1.0" standalone="no"?>
<!DOCTYPE svg PUBLIC "-//W3C//DTD SVG 20010904//EN"
 "http://www.w3.org/TR/2001/REC-SVG-20010904/DTD/svg10.dtd">
<svg version="1.0" xmlns="http://www.w3.org/2000/svg"
 width="800.000000pt" height="800.000000pt" viewBox="0 0 800.000000 800.000000"
 preserveAspectRatio="xMidYMid meet">
<metadata>
Created by potrace 1.16, written by Peter Selinger 2001-2019
</metadata>
<g transform="translate(0.000000,800.000000) scale(0.100000,-0.100000)"
fill="#000000" stroke="none">
<path d="M10 5784 c0 -2211 0 -2215 20 -2209 27 9 25 -3 -2 -15 -15 -6 -18 -9
-7 -9 9 -1 28 10 43 24 15 14 33 25 40 25 14 0 56 12 225 67 58 18 110 33 116
33 6 0 50 13 99 28 78 26 151 32 129 12 -4 -5 -114 -40 -243 -80 -129 -40
-253 -78 -275 -85 -22 -7 -64 -18 -92 -26 l-53 -13 0 -67 c0 -56 3 -68 17 -72
17 -4 17 -5 1 -6 -17 -1 -18 -93 -18 -1696 l0 -1695 3382 1 c2423 0 3375 4
3353 11 -16 6 -41 22 -54 35 -14 12 -33 23 -42 23 -22 0 -51 34 -47 57 2 13
-3 18 -20 17 -17 0 -21 4 -17 15 3 11 0 9 -11 -4 -16 -20 -16 -20 -9 2 3 12 1
31 -5 43 -9 17 -8 20 10 20 11 0 20 5 20 10 0 16 43 12 70 -7 24 -16 25 -16
10 2 -14 17 -13 18 10 12 14 -4 29 -7 34 -7 4 0 6 -7 2 -15 -3 -8 -1 -15 4
-15 6 0 10 5 10 10 0 20 29 9 53 -20 14 -17 33 -30 42 -30 8 0 18 -8 21 -18
12 -38 28 -62 40 -62 24 0 26 22 6 50 l-21 28 25 -12 c13 -6 27 -19 30 -28 3
-10 12 -18 20 -18 8 0 14 -6 14 -12 0 -9 2 -10 8 -2 4 7 15 8 27 3 15 -6 16
-8 4 -8 -17 -1 -34 -29 -24 -39 3 -3 5 -1 5 5 0 17 31 25 47 12 20 -17 29 -2
14 24 -14 22 -14 22 8 3 11 -11 21 -25 21 -33 0 -7 6 -13 13 -13 8 0 7 -4 -3
-10 -8 -5 -23 -7 -34 -4 -13 4 -17 2 -14 -7 6 -19 48 -20 66 -3 11 12 17 12
35 -1 18 -13 85 -15 455 -15 l433 0 -2 338 c-1 185 -5 346 -9 356 -4 13 -18
20 -44 23 -21 2 -69 14 -106 27 -54 18 -67 20 -62 8 4 -11 -3 -9 -24 6 -16 11
-66 33 -112 47 -45 15 -95 38 -111 51 -16 13 -31 24 -34 24 -3 0 -19 14 -36
30 -37 38 -47 66 -26 74 23 8 155 -13 180 -30 11 -7 45 -18 75 -25 30 -6 62
-17 70 -24 8 -7 31 -16 50 -20 19 -4 68 -24 108 -46 l72 -38 1 122 c2 194 0
279 -6 285 -3 3 -31 11 -63 18 -142 32 -157 37 -281 97 -21 10 -81 86 -81 102
0 4 17 5 38 2 20 -3 62 -9 92 -12 30 -4 64 -10 75 -15 61 -25 227 -72 234 -65
3 3 -9 17 -27 31 -38 31 -40 47 -7 62 l25 12 0 263 0 264 -47 13 c-78 20 -81
21 -58 30 19 8 19 9 -2 9 -13 1 -23 6 -23 12 0 8 19 10 65 5 l65 -7 0 30 c0
16 -6 32 -12 34 -10 4 -10 6 0 6 8 1 12 21 12 66 0 45 -4 65 -12 65 -10 0 -10
2 -1 8 17 11 16 172 0 173 -55 3 -114 12 -122 18 -19 15 -87 20 -106 8 -14 -9
-21 -9 -31 1 -9 9 -6 12 14 12 15 0 30 5 34 12 4 6 3 8 -2 5 -6 -3 -15 3 -22
14 -10 15 -10 19 1 19 7 0 17 -4 23 -9 5 -5 43 -15 84 -21 41 -6 90 -13 108
-17 27 -4 32 -2 32 15 0 11 -7 22 -15 26 -8 3 -15 11 -14 18 0 10 2 10 6 1 8
-22 23 -14 23 13 0 21 -4 25 -17 19 -31 -12 -47 -12 -78 1 -17 7 -69 22 -115
34 -47 12 -89 25 -94 30 -5 5 -15 6 -23 3 -16 -6 -14 17 2 29 6 4 2 8 -7 8
-10 0 -18 -6 -18 -12 0 -7 -8 -3 -18 9 -11 15 -33 24 -62 28 -33 5 -41 4 -30
-4 8 -6 23 -11 33 -11 10 0 27 -16 38 -35 16 -27 29 -36 57 -40 120 -18 198
-41 229 -69 31 -26 49 -61 21 -39 -7 6 -33 13 -58 17 -25 4 -67 11 -95 15 -35
6 -52 5 -58 -3 -5 -8 -11 -6 -20 5 -7 9 -28 19 -47 23 -94 18 -160 40 -160 52
0 8 -5 14 -11 14 -6 0 -9 9 -6 20 4 16 -3 21 -50 30 -67 14 -78 8 -21 -10 41
-13 58 -26 58 -42 0 -5 -6 -8 -14 -8 -8 0 -18 -5 -21 -10 -4 -7 2 -9 18 -5 16
4 26 2 30 -8 3 -8 27 -20 53 -26 26 -7 58 -20 70 -30 l23 -18 -30 -1 c-23 0
-29 3 -25 14 3 9 -1 14 -13 14 -11 0 -27 3 -37 7 -15 5 -14 3 3 -14 23 -23 52
-37 73 -34 12 2 11 -1 -3 -16 -15 -16 -19 -16 -28 -3 -8 13 -11 13 -24 -4 -8
-10 -19 -15 -26 -10 -9 5 -8 10 5 19 14 11 14 14 2 18 -22 9 -29 -23 -9 -45
14 -15 15 -21 4 -27 -11 -7 -11 -10 0 -15 8 -3 4 -3 -9 0 -18 4 -22 1 -22 -16
0 -12 -4 -18 -10 -15 -6 4 -7 11 -4 17 4 6 -1 6 -14 -1 -31 -16 -37 -13 -18 8
17 18 17 19 -2 25 -10 4 -40 7 -66 8 -45 2 -47 4 -44 29 4 25 2 26 -46 26 -28
0 -68 7 -88 16 -21 9 -40 12 -43 7 -3 -5 28 -19 69 -31 65 -19 77 -27 98 -60
24 -41 37 -46 56 -27 9 9 12 8 12 -5 0 -9 6 -17 14 -17 8 0 25 -13 39 -29 13
-16 33 -31 43 -33 14 -2 18 -10 15 -28 -1 -14 -6 -27 -10 -30 -14 -11 -11 -40
4 -40 8 0 15 -4 15 -10 0 -5 -15 -10 -32 -10 -24 0 -29 3 -18 10 12 8 12 10
-3 16 -9 3 -17 12 -17 20 0 8 -4 14 -10 14 -5 0 -10 -5 -10 -10 0 -13 22 -53
35 -62 6 -5 4 -8 -6 -8 -8 0 -19 4 -25 9 -15 14 -82 23 -89 11 -3 -5 -15 -10
-26 -10 -11 0 -18 4 -14 10 3 5 12 7 20 3 9 -3 15 1 15 10 0 8 -7 17 -15 21
-8 3 -15 1 -15 -4 0 -6 -16 -10 -35 -10 -28 0 -35 4 -35 20 0 14 -11 22 -42
31 -24 7 -53 21 -64 31 -13 12 -24 15 -28 10 -3 -6 -3 -12 1 -15 5 -2 1 -2 -7
0 -8 3 -31 6 -50 8 -19 2 -36 8 -38 14 -4 13 -42 15 -42 2 0 -5 9 -11 21 -14
13 -4 18 -10 14 -17 -5 -9 -1 -10 12 -6 11 4 28 4 37 0 18 -7 22 -44 4 -44 -6
0 -8 3 -5 7 8 7 -11 33 -24 33 -5 0 -5 -8 -2 -17 6 -15 4 -16 -9 -5 -10 8 -19
9 -22 3 -4 -5 -2 -12 4 -16 13 -8 13 -25 -1 -25 -5 0 -7 5 -4 10 4 7 -3 9 -22
4 -27 -6 -28 -6 -7 10 12 8 24 26 27 38 6 20 3 19 -18 -7 -18 -23 -26 -27 -36
-18 -9 9 -8 17 5 37 20 32 20 33 -6 47 -23 12 -23 12 -5 -9 10 -11 14 -23 9
-26 -5 -3 -12 -3 -15 0 -3 4 -25 8 -49 9 -34 3 -39 2 -24 -7 13 -7 15 -13 7
-18 -7 -4 -13 -25 -14 -48 -1 -22 -5 -38 -9 -36 -4 3 -5 11 -2 18 5 14 -23 26
-63 26 -18 0 -40 30 -36 50 1 3 -5 11 -13 18 -13 12 -14 9 -8 -15 4 -15 12
-31 18 -35 6 -4 8 -8 4 -8 -11 0 24 -40 35 -40 4 0 5 5 2 10 -3 6 3 10 14 10
24 0 36 -16 19 -23 -10 -4 -9 -8 2 -16 11 -8 7 -9 -19 -4 -27 5 -32 3 -26 -7
5 -9 4 -11 -4 -6 -6 4 -9 12 -6 17 4 5 -1 9 -10 9 -9 0 -14 -4 -11 -9 3 -5 -3
-11 -14 -14 -22 -6 -28 -29 -7 -26 29 4 57 -2 57 -11 0 -6 -10 -8 -24 -4 -13
3 -27 1 -31 -6 -4 -7 0 -10 11 -8 13 2 18 -2 16 -14 -1 -9 2 -19 8 -23 6 -4 7
1 3 12 -6 16 -5 17 13 3 33 -26 43 -44 37 -65 -5 -18 -4 -19 12 -5 14 11 17
11 11 1 -12 -18 13 -32 36 -20 22 12 24 29 3 29 -9 0 -15 9 -14 23 1 16 2 18
6 4 2 -9 11 -17 19 -17 12 0 16 -12 13 -37 -1 -5 -5 -7 -10 -5 -17 4 -9 -13
11 -26 19 -11 20 -10 20 28 0 22 4 40 10 40 5 0 7 -13 4 -28 -4 -19 -1 -32 10
-41 19 -16 21 -32 3 -25 -8 3 -19 -2 -26 -10 -7 -8 -19 -12 -27 -9 -8 3 -14
-1 -14 -10 0 -9 8 -18 18 -21 9 -3 -9 -3 -40 0 -54 5 -75 -5 -48 -21 5 -3 15
-15 21 -26 10 -19 9 -20 -13 -9 -20 11 -20 9 5 -15 16 -15 26 -29 23 -32 -5
-5 -103 19 -145 35 -10 4 -13 1 -8 -11 4 -11 2 -14 -9 -10 -16 6 -19 23 -4 23
6 0 10 4 10 9 0 12 -54 21 -59 10 -1 -6 -12 -2 -24 8 -20 18 -20 17 -14 -5 4
-19 3 -21 -9 -11 -8 6 -14 17 -14 24 0 16 -52 29 -80 20 -13 -4 -20 -2 -20 6
0 10 -3 10 -12 1 -14 -14 -42 -16 -33 -3 8 14 -32 33 -70 34 -20 1 -31 5 -29
12 5 13 -40 58 -61 61 -8 1 -15 -2 -15 -7 0 -6 -4 -7 -10 -4 -6 4 -5 13 2 25
10 16 10 22 -1 32 -12 11 -13 10 -8 -4 3 -10 2 -20 -3 -23 -4 -3 -10 0 -12 6
-2 7 -4 -4 -4 -24 0 -20 2 -35 6 -35 21 2 20 -5 -1 -29 l-24 -27 28 17 c15 10
27 13 27 9 0 -5 12 -9 27 -8 14 0 28 -5 30 -11 3 -7 -2 -13 -11 -13 -10 0 -16
-9 -16 -24 0 -29 -15 -42 -24 -20 -3 8 -10 13 -15 9 -14 -8 -2 -35 15 -35 8 0
14 -6 14 -14 0 -7 9 -16 20 -19 11 -3 20 -1 20 4 0 5 7 9 16 9 12 0 14 -3 6
-12 -5 -7 -9 -32 -7 -54 3 -39 1 -42 -27 -48 -18 -4 -27 -10 -22 -17 4 -8 9
-7 16 2 8 11 11 11 15 1 4 -9 8 -10 18 -2 10 8 17 5 29 -12 14 -20 18 -21 26
-8 8 13 11 13 19 1 5 -7 14 -10 20 -7 6 4 11 2 11 -4 0 -7 7 -9 16 -6 8 3 13
2 10 -2 -3 -5 12 -16 32 -25 62 -27 92 -107 41 -107 -12 0 -16 -5 -13 -15 8
-20 -10 -19 -30 1 -9 8 -20 13 -25 9 -6 -3 -25 7 -43 22 -51 43 -81 58 -86 44
-3 -8 -15 -2 -35 16 -17 15 -25 20 -18 10 12 -14 11 -17 -3 -17 -9 0 -25 9
-37 21 -11 11 -23 18 -26 15 -3 -3 -15 1 -25 9 -23 16 -48 10 -48 -12 0 -12
-8 -14 -36 -8 -50 9 -84 26 -84 42 0 19 10 16 37 -9 13 -12 23 -16 23 -10 0 6
-9 16 -20 22 -15 8 -18 17 -13 40 3 19 1 30 -6 30 -6 0 -11 -9 -11 -20 0 -11
-4 -20 -9 -20 -6 0 -9 17 -7 38 1 20 1 43 -2 50 -6 16 -56 38 -110 47 -23 4
-44 11 -48 16 -3 5 -14 9 -25 9 -13 0 -18 -4 -13 -12 4 -7 3 -8 -4 -4 -7 4
-12 14 -12 22 0 8 -4 14 -10 14 -5 0 -10 15 -10 34 0 19 4 38 10 41 16 10 12
42 -6 49 -21 8 -24 8 -24 -5 0 -5 4 -7 10 -4 6 3 10 -3 10 -14 0 -12 -3 -21
-7 -21 -15 1 -40 25 -36 35 5 17 -53 45 -66 32 -8 -8 -11 -8 -11 2 0 7 -4 9
-10 6 -6 -3 -10 4 -10 17 -1 20 -2 21 -10 6 -9 -14 -15 -15 -43 -6 -50 18 -91
45 -75 51 7 2 10 7 6 11 -3 4 -16 3 -27 -4 -18 -9 -21 -8 -22 7 -1 10 -5 5 -8
-12 -10 -39 -6 -45 30 -45 16 0 29 -4 29 -9 0 -5 -9 -7 -20 -4 -12 3 -20 0
-20 -7 0 -9 11 -11 34 -7 45 7 76 -1 69 -19 -3 -8 1 -14 10 -14 9 0 21 -16 28
-35 7 -19 20 -36 28 -38 10 -3 7 -5 -6 -6 -16 -1 -24 6 -29 24 -3 13 -12 29
-20 36 -16 13 -19 -2 -3 -18 7 -7 -1 -10 -27 -9 -28 1 -38 5 -40 20 -1 10 -10
26 -20 35 -15 15 -16 14 -10 -14 5 -20 4 -27 -2 -20 -6 6 -12 19 -14 30 -3 17
-10 20 -45 18 -33 -1 -41 2 -36 13 3 7 -2 17 -11 20 -9 3 -16 11 -16 16 0 7 5
6 14 -1 15 -13 49 -4 40 10 -3 5 0 9 6 9 6 0 9 4 5 10 -3 5 -11 7 -18 4 -7 -2
-71 11 -142 31 -192 51 -209 57 -222 74 -16 18 -17 81 -2 81 5 0 7 -5 3 -12
-5 -7 -3 -8 5 -3 7 4 23 2 36 -5 22 -12 65 -7 53 6 -3 3 -79 25 -169 50 -89
24 -168 49 -174 54 -6 5 -20 11 -31 13 -10 1 -25 6 -31 10 -10 6 -13 -3 -13
-37 0 -59 25 -291 50 -471 40 -280 42 -319 24 -422 -17 -105 -13 -137 48 -333
42 -135 46 -195 16 -240 -13 -19 -46 -48 -73 -63 -48 -27 -54 -28 -155 -23
-58 2 -115 7 -127 11 -18 6 -30 -2 -64 -39 -23 -25 -48 -46 -56 -46 -7 0 -26
-8 -40 -17 -38 -25 -203 -25 -253 0 -147 73 -170 106 -177 250 -5 91 -3 105
14 126 20 24 117 61 164 61 61 0 89 12 89 36 0 13 12 32 27 43 35 28 43 18 12
-16 -21 -23 -22 -25 -4 -18 11 4 33 10 48 13 25 4 26 5 10 18 -17 13 -17 13 4
14 37 0 57 88 28 120 -15 17 -38 127 -33 159 1 9 -3 25 -9 37 -7 11 -19 63
-29 117 l-17 96 -36 3 c-27 2 -36 7 -35 21 2 15 -4 17 -35 11 -41 -7 -67 -22
-119 -67 -68 -59 -100 -72 -175 -70 -50 2 -78 8 -103 24 -40 25 -49 43 -59
121 -7 52 -5 58 22 88 16 18 44 38 63 45 71 27 166 68 187 83 28 17 29 44 4
99 -27 59 -46 156 -32 161 6 2 11 8 11 13 0 6 -4 8 -9 4 -5 -3 -11 27 -14 67
-4 69 -26 169 -47 213 -37 76 -107 330 -131 473 -10 60 -15 73 -33 77 -12 2
-90 18 -175 34 -85 17 -156 33 -159 36 -3 2 1 11 7 19 7 8 10 20 7 25 -8 12
-30 5 -66 -19 -18 -12 -34 -15 -55 -9 -16 4 -46 10 -66 13 l-37 6 -6 193 c-18
546 -45 1436 -56 1862 -6 215 -17 613 -25 885 -23 807 -29 1131 -19 1138 5 4
22 24 37 44 l27 37 -172 134 c-95 73 -273 211 -396 305 l-223 172 -156 0
c-137 0 -154 -2 -143 -15 7 -8 17 -15 23 -15 6 0 33 -17 61 -38 28 -21 64 -46
79 -56 45 -28 25 -30 -25 -2 -30 17 -49 22 -59 15 -17 -11 -30 -12 -27 -1 3
14 -14 42 -23 36 -5 -3 -9 0 -9 6 0 6 -8 10 -18 8 -11 -2 -33 11 -51 30 l-33
32 -209 0 -209 0 0 -28 c0 -15 7 -160 15 -322 8 -162 19 -396 25 -520 30 -660
45 -993 70 -1495 11 -225 20 -428 20 -450 l0 -41 43 0 c62 -2 127 -19 148 -40
30 -30 34 -75 10 -106 -18 -23 -26 -25 -49 -18 -15 4 -39 11 -54 14 -15 3 -30
15 -33 27 -11 33 -29 16 -41 -38 -8 -35 -9 -100 -3 -209 4 -88 8 -174 9 -192
0 -29 3 -32 23 -27 19 5 25 0 37 -29 7 -20 17 -36 22 -36 11 0 10 -32 -3 -50
-9 -13 -10 -13 -8 0 3 31 -1 39 -17 33 -14 -5 -14 -3 -3 15 16 25 5 40 -19 25
-15 -9 -17 -31 -15 -194 1 -101 5 -212 8 -246 l6 -61 37 -6 c183 -26 184 -27
166 -47 -10 -11 -12 -19 -6 -19 18 0 14 -45 -5 -62 -10 -9 -35 -21 -55 -28
-21 -6 -38 -14 -38 -17 0 -3 8 -2 17 1 16 6 16 6 0 -12 -24 -26 -21 -34 13
-54 36 -20 39 -52 8 -71 -13 -8 -72 -34 -133 -57 -60 -23 -128 -51 -150 -61
-22 -10 -96 -41 -165 -68 -111 -44 -126 -48 -144 -35 -11 8 -33 14 -48 14 -15
0 -30 5 -33 11 -4 5 -17 9 -28 8 -12 0 -25 0 -29 1 -5 1 -14 3 -20 4 -17 2
-12 43 8 73 11 17 19 21 32 15 9 -5 37 -8 62 -8 25 1 48 -2 51 -7 4 -5 9 3 11
17 3 14 2 23 -3 21 -4 -3 -14 4 -22 15 -11 16 -37 25 -111 38 -88 15 -96 18
-96 39 0 12 3 24 7 26 5 3 46 -1 93 -9 98 -16 111 -16 90 -5 -14 7 -83 23
-162 36 -21 3 -38 9 -38 13 0 4 34 24 76 45 l76 38 -6 37 c-3 20 -8 116 -11
212 -4 96 -8 195 -11 220 -20 208 -31 572 -14 460 l7 -45 4 60 c5 92 3 123
-11 140 -11 13 -15 12 -32 -10 -22 -28 -53 -29 -82 -3 -10 9 -24 14 -32 11 -7
-2 -23 5 -35 16 -30 28 -71 26 -107 -4 -35 -30 -52 -18 -52 36 0 59 17 94 56
112 43 21 74 21 121 2 19 -8 44 -15 55 -15 10 0 33 -7 50 -16 l30 -16 -6 79
c-3 43 -8 132 -11 198 -3 66 -8 149 -10 185 -7 96 -61 1072 -111 2005 -3 66
-3 117 1 113 4 -4 9 -58 12 -120 2 -62 8 -130 13 -151 4 -21 6 -46 3 -57 -3
-12 0 -20 6 -20 7 0 9 -5 5 -11 -4 -7 -1 -10 6 -7 20 6 42 89 28 105 -6 8 -9
38 -6 77 3 35 2 70 -3 78 -6 11 -3 20 8 29 15 13 16 8 11 -56 -5 -50 -4 -61 3
-40 9 29 11 183 3 197 -4 6 -10 142 -13 281 l-1 57 -485 0 -485 0 0 -2216z
m2720 -1556 l0 -73 -271 -104 c-148 -57 -272 -102 -273 -100 -2 2 -7 41 -11
85 l-7 82 84 28 c342 115 455 152 466 153 8 1 12 -20 12 -71z m-1056 -753 c3
-66 15 -302 26 -525 11 -223 24 -491 30 -597 5 -105 10 -213 10 -240 l0 -49
-202 -162 c-110 -88 -204 -159 -208 -157 -4 2 -10 64 -13 137 -8 162 -32 556
-52 853 -9 121 -16 243 -17 272 -1 29 -5 50 -10 47 -5 -4 -7 11 -4 33 8 49 -2
30 -13 -28 l-9 -44 -1 52 c-1 28 -4 60 -7 70 -6 15 -4 16 7 6 24 -24 29 -13
29 67 0 59 -3 80 -12 79 -26 -3 -39 1 -33 12 4 6 13 8 20 5 10 -4 13 11 14 61
0 37 5 71 11 77 5 5 10 7 10 3 0 -4 20 5 44 18 25 14 50 25 57 25 7 0 41 14
76 30 34 17 70 30 78 30 8 0 15 5 15 10 0 6 11 10 24 10 14 0 28 5 31 10 4 6
11 8 16 5 5 -4 12 0 15 9 3 8 12 12 19 10 7 -3 16 0 20 7 15 23 22 -14 29
-136z m1676 -698 c19 -5 38 -14 42 -20 6 -9 8 -9 8 1 0 6 6 12 14 12 16 0 50
-47 37 -52 -5 -2 -26 -28 -47 -59 -22 -30 -44 -54 -51 -52 -6 2 -14 -5 -18
-17 -4 -12 -36 -54 -71 -95 -35 -40 -64 -76 -64 -79 0 -3 -8 -15 -17 -26 -10
-11 -43 -49 -73 -84 -30 -36 -65 -68 -77 -71 -13 -4 -23 -14 -23 -22 0 -9 6
-13 15 -9 8 3 15 1 15 -4 0 -13 -22 -25 -48 -25 -18 0 -30 -12 -49 -45 -13
-25 -33 -52 -42 -60 -10 -8 -40 -42 -67 -75 -27 -33 -53 -62 -57 -64 -4 -1
-25 -21 -45 -44 -20 -22 -53 -56 -72 -77 -19 -20 -73 -75 -119 -123 -46 -48
-87 -87 -92 -87 -5 0 -9 -3 -9 -7 0 -5 -28 -38 -63 -75 -98 -105 -151 -169
-159 -188 -9 -25 -44 -44 -53 -29 -5 6 -12 3 -22 -10 -8 -12 -19 -21 -25 -21
-6 0 -33 -25 -61 -55 -27 -30 -54 -55 -61 -55 -6 0 -17 -9 -24 -20 -10 -16
-10 -20 0 -20 9 0 9 -3 -2 -9 -20 -13 -32 -3 -25 20 4 11 2 19 -4 19 -6 0 -11
-7 -11 -15 0 -9 -6 -12 -15 -9 -25 10 -17 34 11 34 17 0 28 6 31 20 3 11 10
20 15 20 5 0 6 -4 3 -10 -3 -5 -2 -10 3 -10 5 0 10 11 10 25 0 25 -1 25 -19 9
-11 -9 -19 -24 -19 -31 0 -8 -6 -13 -12 -10 -7 2 -13 17 -13 33 0 29 1 29 57
29 46 1 62 5 83 25 16 15 24 32 22 42 -3 10 -1 21 4 24 5 3 9 1 9 -5 0 -13 30
-2 50 18 11 11 12 15 2 19 -21 7 -13 22 10 19 24 -4 35 -22 19 -32 -6 -3 -11
-13 -11 -21 0 -24 22 2 48 57 27 55 28 70 5 63 -15 -5 -15 -4 -3 4 8 6 17 9
20 7 3 -1 11 3 17 11 10 10 10 15 -5 24 -16 11 -16 11 1 6 23 -7 83 49 97 91
7 20 20 33 36 37 13 4 24 11 24 16 0 6 7 10 15 10 8 0 15 5 15 11 0 6 7 8 15
5 10 -3 15 -1 14 7 -3 16 12 48 20 43 3 -2 17 11 31 30 14 18 31 32 38 29 6
-2 12 1 12 7 0 17 53 63 70 61 9 -2 10 0 3 3 -21 9 15 52 45 56 20 2 28 9 30
29 3 28 -14 40 -88 60 -25 7 -51 17 -57 22 -9 6 -13 5 -13 -3 0 -10 -3 -10
-15 0 -25 21 -41 -3 -18 -26 16 -16 16 -17 1 -11 -12 4 -29 -4 -50 -23 -18
-17 -38 -30 -44 -30 -19 0 -105 -71 -98 -81 3 -5 -15 -30 -40 -55 -25 -25 -46
-39 -46 -32 0 9 -3 9 -10 -2 -5 -8 -10 -11 -10 -7 0 10 -43 -20 -87 -62 -21
-19 -31 -35 -27 -45 3 -9 1 -16 -5 -16 -6 0 -11 -6 -11 -14 0 -18 -75 -78 -85
-68 -5 4 -5 -2 -1 -12 7 -20 7 -20 -16 -1 -13 11 -20 16 -17 12 6 -8 -46 -67
-58 -66 -3 0 -12 -14 -20 -33 -8 -18 -17 -28 -21 -22 -10 14 -37 -16 -37 -41
0 -11 3 -25 7 -31 6 -10 -13 -30 -104 -109 -21 -18 -58 -20 -58 -3 0 7 -11 -3
-25 -22 -38 -51 -78 -70 -68 -31 8 30 -33 15 -71 -26 -17 -19 -45 -49 -63 -68
-17 -18 -29 -36 -25 -39 3 -3 0 -6 -6 -6 -7 0 -12 -7 -12 -16 0 -13 6 -11 31
7 30 21 31 21 20 2 -6 -12 -24 -33 -42 -47 -17 -14 -27 -26 -23 -26 4 0 -14
-16 -39 -35 -49 -37 -80 -48 -56 -18 13 15 12 15 -8 2 -24 -14 -30 -29 -13
-29 6 0 -4 -16 -21 -35 -34 -37 -55 -46 -45 -19 5 13 4 14 -7 6 -8 -7 -17 -9
-20 -5 -4 3 -7 -1 -7 -11 0 -10 -5 -14 -11 -11 -6 4 -13 -2 -16 -14 -3 -12
-12 -21 -19 -21 -14 0 -54 -35 -53 -46 0 -10 -48 -43 -55 -37 -3 3 -6 -1 -6
-10 0 -9 -4 -17 -9 -17 -15 0 -91 -72 -117 -110 -13 -19 -24 -31 -24 -27 0 8
-11 0 -64 -50 -19 -17 -31 -35 -27 -39 3 -4 1 -4 -6 0 -6 3 -18 -3 -27 -16 -9
-12 -18 -19 -21 -16 -5 5 743 746 914 905 47 43 174 165 282 272 109 107 203
197 209 201 7 4 91 86 189 182 368 364 732 709 759 720 9 4 13 7 8 7 -11 1 54
71 65 71 4 0 31 23 60 51 l52 50 21 -37 c15 -27 31 -40 56 -47z m3920 -882
c41 -14 82 -25 92 -25 10 0 18 -4 18 -10 0 -14 71 -31 122 -29 24 1 53 -3 65
-9 12 -7 34 -12 50 -13 22 0 24 -2 10 -8 -17 -6 -17 -8 2 -33 12 -14 21 -29
21 -32 0 -9 -75 -1 -130 13 -42 10 -213 42 -235 43 -5 1 -20 -2 -32 -6 -18 -6
-32 1 -68 36 -24 24 -47 55 -51 71 -6 25 -4 27 27 27 19 0 68 -12 109 -25z
m-2320 -812 c0 -12 3 -13 14 -4 10 8 16 9 21 1 3 -5 17 -10 31 -10 13 0 24 -4
24 -9 0 -6 23 -21 50 -35 28 -14 50 -23 50 -19 0 3 7 0 15 -7 8 -7 15 -10 15
-6 0 10 55 -20 69 -38 7 -9 17 -13 22 -10 14 8 10 -68 -4 -96 -16 -30 -36 -29
-104 1 -67 30 -101 44 -155 64 -27 10 -48 23 -48 29 0 15 -36 46 -54 46 -16 0
-29 27 -16 35 4 3 10 1 12 -5 2 -6 9 -1 17 11 12 20 11 21 -4 15 -15 -5 -16
-4 -5 9 7 9 10 18 7 22 -4 3 -2 12 4 19 13 16 39 7 39 -13z m2196 -158 c5 -12
10 -13 19 -5 10 8 20 7 38 -4 13 -9 26 -13 30 -10 5 5 31 -1 97 -22 8 -3 15
-5 15 -4 0 1 12 -3 28 -9 17 -7 27 -7 27 -1 0 6 5 10 10 10 6 0 10 -7 10 -15
0 -8 5 -16 10 -16 16 -2 22 -5 62 -22 21 -10 44 -17 52 -17 8 0 18 -5 21 -11
4 -5 12 -8 18 -6 40 14 163 -64 188 -118 5 -11 15 -28 21 -39 11 -15 11 -19 0
-23 -6 -3 -10 -9 -7 -13 3 -5 12 -7 20 -3 10 3 15 -1 15 -12 0 -13 -6 -16 -22
-11 -13 3 -29 6 -36 6 -7 0 -10 5 -6 12 4 6 3 8 -4 4 -6 -3 -28 0 -49 7 -21 8
-72 24 -113 37 -41 13 -102 38 -135 56 -33 17 -75 35 -94 39 -18 4 -48 15 -65
25 -17 10 -53 20 -79 24 -56 7 -106 51 -114 99 -7 43 30 78 43 42z"/>
<path d="M2710 7996 c0 -10 302 -266 313 -266 3 0 4 17 3 37 -1 22 5 44 14 53
8 8 14 24 12 34 -2 10 0 16 5 13 5 -3 7 8 5 26 -3 22 -1 29 6 22 6 -6 13 -44
15 -85 2 -54 4 -41 5 48 l2 122 -190 0 c-104 0 -190 -2 -190 -4z"/>
<path d="M4488 7983 c10 -26 152 -304 199 -393 50 -94 217 -428 268 -535 20
-44 39 -75 41 -69 3 6 -36 94 -86 197 -49 102 -90 195 -90 207 0 11 -8 35 -17
53 -14 28 -17 68 -17 295 0 205 -3 262 -13 262 -10 0 -13 -45 -15 -195 l-3
-196 -50 113 c-44 100 -50 122 -54 195 -2 47 -7 83 -13 83 -7 0 -8 -35 -3
-102 7 -94 11 -108 58 -205 27 -56 54 -103 58 -103 5 0 9 -19 8 -42 0 -42 -2
-39 -69 92 l-69 135 0 113 c-1 61 -4 112 -8 112 -5 0 -7 -44 -6 -97 l3 -98
-48 97 c-32 65 -53 97 -64 97 -13 1 -15 -4 -10 -16z"/>
<path d="M4880 7997 c0 -2 16 -44 35 -93 19 -49 35 -99 35 -111 0 -12 4 -24 9
-27 13 -9 23 -58 13 -65 -5 -3 -12 -82 -15 -176 -5 -172 -3 -161 19 95 l6 75
29 -75 c16 -41 37 -81 46 -88 20 -14 18 -10 152 -414 51 -156 104 -312 116
-348 13 -36 41 -126 63 -200 36 -119 41 -131 47 -103 4 18 16 40 27 50 19 17
19 16 14 -10 -2 -15 0 -27 5 -27 5 0 9 8 10 18 0 9 2 37 5 61 3 29 -9 95 -35
205 -22 88 -51 213 -66 276 -28 116 -217 869 -233 925 l-8 30 -137 3 c-75 1
-137 1 -137 -1z"/>
<path d="M5489 7988 c-5 -50 -10 -87 -19 -117 -15 -54 -13 -101 5 -101 18 0
20 -9 40 -172 18 -150 18 -158 5 -158 -5 0 -10 10 -10 23 0 62 -34 267 -43
258 -6 -6 -6 -30 1 -68 6 -35 7 -62 1 -67 -5 -6 -9 -19 -9 -30 0 -16 3 -17 9
-8 11 18 21 -17 21 -75 0 -36 3 -43 20 -43 16 0 20 -7 20 -33 0 -19 3 -68 6
-110 5 -59 4 -77 -6 -77 -8 0 -10 8 -6 24 3 14 2 28 -4 31 -6 4 -10 -20 -9
-67 1 -40 4 -62 6 -48 2 14 10 30 17 35 7 6 16 40 20 78 7 62 9 67 32 67 22 0
24 -4 25 -47 0 -35 2 -42 8 -28 14 34 23 92 13 76 -14 -20 -25 21 -17 60 5 21
4 29 -3 25 -7 -4 -13 12 -17 41 -3 27 -8 62 -11 79 -3 19 1 36 9 42 11 9 13 6
9 -18 -2 -17 0 -30 6 -30 15 0 18 19 12 75 -4 45 -6 48 -17 30 -11 -18 -12
-16 -13 18 0 23 -4 36 -10 32 -5 -3 -10 -22 -10 -41 0 -19 -4 -34 -9 -34 -5 0
-11 -10 -14 -22 -2 -17 -5 -19 -9 -8 -12 31 -28 219 -28 318 0 61 -4 102 -10
102 -5 0 -11 -6 -11 -12z"/>
<path d="M4491 7330 c-1 -372 6 -520 26 -513 10 4 11 9 4 16 -6 6 -11 18 -11
26 1 12 5 10 20 -7 17 -20 19 -42 20 -215 2 -105 5 -378 9 -605 4 -291 3 -412
-5 -412 -6 0 -44 11 -84 25 -40 14 -88 25 -106 25 -35 0 -50 14 -46 42 2 10
-1 26 -7 35 -8 14 -10 10 -11 -24 0 -56 -19 -56 -85 -2 l-50 42 -3 -29 c-1
-16 -7 -38 -12 -49 -10 -22 -38 -95 -98 -255 -83 -219 -192 -635 -192 -728 0
-26 5 -67 11 -92 6 -25 12 -70 13 -100 2 -30 8 -64 14 -75 16 -30 42 -103 42
-120 0 -11 -8 -13 -32 -8 -18 3 -37 10 -42 14 -6 5 -20 9 -33 9 -17 0 -27 10
-39 38 -9 20 -18 31 -21 24 -3 -7 0 -19 6 -26 8 -10 7 -17 -4 -26 -12 -10 -15
-10 -15 3 0 9 -5 27 -12 41 -9 20 -16 24 -35 20 -12 -4 -41 1 -63 10 -53 21
-63 20 -78 -5 -12 -18 -11 -24 8 -44 12 -13 46 -35 75 -49 72 -34 82 -51 24
-42 -69 11 -71 12 -122 35 -27 11 -51 21 -53 21 -17 0 -74 59 -74 76 0 35 91
104 137 104 10 0 39 -11 66 -25 l47 -25 1 37 c0 21 2 47 5 58 2 11 6 135 9
275 7 283 17 362 71 533 32 101 73 191 74 160 0 -7 9 -13 20 -13 23 0 26 25 8
66 -11 22 -10 28 6 40 11 7 23 11 27 8 5 -3 9 2 9 11 0 9 5 13 10 10 6 -3 10
0 10 9 0 8 -6 17 -12 19 -10 4 -9 6 1 6 8 1 19 -6 26 -16 11 -15 16 -15 47 -2
35 14 81 50 107 83 13 15 13 19 0 27 -12 7 -11 9 2 9 17 0 49 69 49 105 0 20
-14 8 -80 -71 -14 -17 -41 -36 -59 -42 -101 -35 -144 5 -177 166 -5 24 20 32
29 8 9 -22 88 -55 137 -56 83 -3 100 -1 100 15 0 8 6 12 13 10 17 -7 41 11 33
24 -4 6 -13 11 -19 11 -7 0 -19 9 -27 21 -8 11 -22 25 -31 29 -14 8 -14 4 2
-27 26 -50 11 -56 -76 -33 -39 11 -82 20 -97 20 -33 0 -34 7 -9 38 22 25 31
28 31 8 0 -24 48 -48 81 -41 16 4 32 11 35 17 7 10 -20 32 -41 34 -5 0 -28 6
-49 12 -36 10 -45 9 -83 -13 -24 -13 -41 -20 -39 -16 3 4 -1 8 -8 8 -18 0 -12
-91 10 -159 8 -25 19 -86 24 -133 9 -85 8 -89 -17 -121 -14 -19 -53 -54 -87
-78 -64 -46 -145 -126 -148 -148 -1 -7 -3 -76 -4 -153 -2 -220 -20 -485 -33
-498 -6 -6 -11 -17 -11 -24 0 -23 -91 -111 -120 -116 -20 -4 -30 -14 -35 -34
-10 -42 -24 -246 -17 -258 3 -5 22 -32 41 -59 34 -48 34 -48 50 -27 16 21 18
21 49 6 17 -9 34 -20 37 -25 10 -16 20 -224 18 -367 -3 -142 5 -193 29 -193 7
0 13 12 14 28 0 15 8 97 17 182 9 85 19 193 22 239 7 88 23 125 72 156 13 9
23 24 23 35 0 25 15 25 39 1 14 -14 22 -16 31 -8 10 9 11 7 6 -10 -5 -15 -2
-24 11 -31 26 -13 91 -22 95 -13 2 5 13 11 25 15 17 5 25 1 35 -19 12 -22 12
-43 0 -133 -17 -141 -11 -238 23 -332 77 -212 143 -275 300 -287 118 -9 208
29 264 110 26 39 29 52 37 172 4 72 6 170 5 218 -2 73 0 92 15 108 16 17 16
19 1 19 -20 0 -23 16 -4 23 17 6 67 -13 67 -26 0 -6 -7 -18 -15 -27 -14 -16
-14 -17 10 -12 21 4 24 1 19 -13 -6 -15 -4 -16 13 -7 14 8 50 7 129 -4 60 -8
138 -19 174 -24 36 -5 76 -12 90 -16 l25 -8 -25 -7 c-23 -6 -23 -7 8 -8 25 -1
32 -5 32 -21 0 -11 -4 -20 -10 -20 -5 0 -10 -7 -10 -16 0 -14 2 -14 15 0 8 8
15 18 15 23 0 18 42 43 71 43 39 0 112 -21 121 -34 9 -13 61 11 53 24 -11 18
6 33 18 17 15 -19 57 -32 57 -18 0 6 -5 11 -12 11 -6 0 -9 3 -5 6 9 10 48 -7
41 -18 -4 -5 4 -4 17 2 22 12 22 13 4 26 -13 10 -14 14 -5 14 9 0 7 5 -6 15
-18 14 -18 14 4 8 24 -6 31 14 8 23 -8 3 -12 13 -10 22 5 13 2 13 -10 -2 -18
-22 -21 -14 -6 15 12 22 38 25 46 5 8 -21 36 -29 46 -14 6 10 8 10 8 1 0 -7 4
-13 8 -13 4 0 8 9 8 20 0 25 -21 26 -36 3 -11 -17 -11 -17 -6 0 3 10 6 21 6
23 0 2 9 4 20 4 36 0 19 22 -41 54 -41 22 -69 16 -69 -14 0 -20 -15 -25 -44
-14 -9 3 -13 11 -9 18 3 6 1 6 -8 -1 -7 -7 -19 -13 -27 -13 -12 0 -12 3 -1 16
9 11 23 14 45 11 30 -5 32 -3 36 27 3 31 3 31 -32 27 -19 -3 -27 -6 -17 -9 9
-2 17 -7 17 -12 0 -14 -40 -19 -53 -6 -7 7 -18 11 -25 8 -15 -5 -15 -1 -2 33
5 14 14 24 19 20 5 -3 12 -1 16 5 3 5 16 10 28 11 16 1 13 3 -11 10 -29 9 -32
13 -26 37 4 15 12 34 19 42 7 8 15 24 17 35 2 11 10 20 17 20 8 0 16 6 19 14
3 9 0 11 -7 7 -8 -6 -10 0 -5 21 12 56 16 63 30 63 8 0 13 4 10 9 -8 12 33 57
50 53 8 -2 17 4 20 12 3 8 12 12 20 9 9 -3 13 -12 10 -19 -3 -7 0 -16 6 -20 7
-5 8 -2 3 6 -6 10 -2 11 18 6 40 -10 24 20 -19 36 -43 15 -50 35 -22 59 20 16
20 18 6 19 -11 0 -18 8 -18 21 0 15 -5 20 -22 17 -26 -3 -67 30 -49 41 13 8
42 87 34 95 -3 3 -5 33 -4 66 1 44 -3 66 -14 77 -9 8 -18 13 -21 10 -3 -3 -7
-43 -8 -89 -4 -99 -22 -178 -43 -178 -8 0 -11 5 -8 10 4 6 2 17 -5 25 -7 9 -8
15 0 20 5 3 10 1 10 -4 0 -6 4 -11 9 -11 5 0 9 10 9 23 0 12 1 72 2 132 0 61
-2 199 -5 307 -4 109 -3 203 2 210 11 18 10 51 -2 60 -17 13 -25 9 -25 -11 0
-11 -6 -22 -12 -24 -8 -3 -6 -6 5 -6 17 -1 18 -19 15 -303 -1 -167 -4 -293 -6
-280 -7 46 -23 19 -21 -38 2 -64 -5 -84 -22 -60 -8 12 -10 10 -6 -7 3 -13 1
-23 -4 -23 -5 0 -9 8 -10 18 -1 11 -4 9 -9 -8 -4 -14 -8 -19 -9 -12 -1 7 -5
10 -11 7 -5 -3 -10 -28 -10 -55 0 -45 -14 -132 -26 -170 -4 -12 -9 -11 -24 8
l-19 22 -6 -55 c-4 -31 -9 -54 -11 -52 -2 2 -11 32 -19 68 l-15 64 5 -55 c3
-30 8 -65 11 -77 5 -17 2 -23 -9 -23 -8 0 -18 -6 -21 -12 -3 -7 -3 7 0 32 5
52 -6 34 -26 -40 -7 -25 -16 -53 -21 -62 -12 -23 -12 -68 0 -68 17 0 20 -43 5
-65 -19 -29 -45 -41 -38 -17 5 14 4 15 -5 2 -6 -8 -11 -36 -11 -62 0 -26 -4
-49 -9 -52 -4 -3 -6 -16 -4 -29 4 -22 12 -25 103 -37 54 -6 104 -9 110 -5 6 4
28 9 49 11 l37 3 0 -44 c1 -34 -2 -43 -11 -35 -12 10 -95 23 -227 35 -39 4
-72 12 -79 21 -6 8 -17 14 -24 14 -34 0 -35 33 -41 1373 -6 1273 -7 1323 -25
1349 -11 14 -19 32 -19 38 0 7 -7 18 -15 24 -9 6 -17 25 -19 41 -2 17 -6 28
-10 25 -10 -7 -28 28 -21 40 3 6 0 10 -8 10 -14 0 -42 49 -33 58 10 9 -15 43
-27 35 -8 -4 -8 -2 1 9 8 10 9 19 3 22 -5 3 -11 1 -13 -6 -3 -7 -25 24 -50 67
-24 44 -97 170 -160 281 -64 111 -118 210 -121 220 -2 10 -5 -114 -6 -276z"/>
<path d="M5465 7088 c3 -79 7 -190 10 -248 2 -58 8 -116 13 -130 7 -18 10 34
11 183 2 248 -5 337 -26 337 -12 0 -14 -22 -8 -142z"/>
<path d="M7955 7070 c-4 -6 -3 -10 1 -10 4 0 -3 -11 -16 -25 -14 -15 -35 -25
-50 -25 -23 0 -29 -6 -33 -30 -4 -18 -13 -30 -22 -30 -12 0 -15 6 -10 21 5 15
4 19 -4 15 -6 -4 -11 -20 -11 -35 0 -33 -25 -59 -66 -67 -39 -7 -74 -35 -78
-59 -2 -16 -12 -21 -47 -23 -24 -2 -48 -8 -54 -13 -7 -7 4 -8 33 -3 23 4 42 4
42 1 0 -3 -24 -23 -52 -44 -29 -21 -60 -45 -69 -53 -58 -54 -91 -68 -170 -69
-37 -1 -61 -6 -69 -16 -18 -22 -32 -18 -20 6 6 11 9 28 7 37 -3 14 -5 15 -10
2 -3 -8 -8 -28 -12 -44 -5 -25 -9 -28 -35 -22 -16 3 -32 1 -35 -4 -3 -6 -1
-10 5 -10 7 0 9 -13 4 -37 -4 -21 -3 -35 0 -31 7 6 14 30 15 56 2 22 31 13 31
-10 0 -50 -12 -70 -36 -65 -13 2 -29 -2 -35 -10 -14 -16 -18 -63 -7 -79 10
-14 0 -44 -14 -44 -6 0 -8 11 -4 24 4 16 1 26 -9 30 -8 3 -14 16 -13 28 3 42
-25 197 -34 192 -5 -4 -6 -18 -3 -33 4 -14 9 -51 11 -81 2 -30 6 -74 9 -98 5
-48 -13 -65 -47 -43 -17 10 -22 9 -34 -6 -7 -10 -14 -22 -14 -26 0 -17 -18 4
-24 29 -5 18 -3 30 6 35 9 6 9 9 1 9 -7 0 -14 31 -18 85 -4 47 -11 85 -16 85
-5 0 -10 -8 -10 -17 -2 -32 -4 -38 -17 -60 -14 -25 -7 -50 20 -76 21 -20 21
-58 0 -65 -9 -3 -11 4 -8 22 3 14 0 28 -5 32 -5 3 -9 2 -8 -3 5 -30 -24 -49
-33 -21 -2 6 -12 12 -22 14 -15 2 -15 0 -4 -14 7 -9 18 -20 23 -25 6 -4 3 -13
-9 -22 -19 -15 -19 -15 2 -15 12 0 23 -7 23 -15 2 -24 4 -29 12 -42 15 -24 -9
-13 -48 22 -22 19 -42 32 -45 29 -3 -3 6 -14 19 -25 13 -10 18 -19 12 -19 -8
0 -7 -7 1 -22 16 -28 40 -48 50 -42 5 3 8 1 8 -5 0 -14 -18 -23 -22 -10 -5 14
-38 0 -38 -17 0 -8 -6 -14 -12 -14 -7 0 -5 -5 5 -11 9 -5 17 -17 17 -25 0 -8
13 -17 30 -20 34 -7 38 -19 11 -33 -14 -8 -22 -5 -38 12 -11 13 -18 28 -15 35
2 7 -3 12 -12 12 -13 0 -14 -5 -6 -26 6 -14 10 -37 11 -52 0 -22 2 -24 8 -8 7
17 8 17 23 2 9 -9 24 -13 32 -10 9 3 16 1 16 -6 0 -6 -4 -8 -10 -5 -5 3 -10 2
-10 -4 0 -6 -15 -18 -32 -27 -18 -9 -56 -34 -85 -55 -29 -22 -60 -39 -70 -39
-17 -1 -17 -2 1 -15 10 -8 23 -12 27 -9 14 8 71 -54 73 -79 1 -17 6 -23 15
-19 10 4 13 0 9 -16 -4 -12 -2 -22 4 -22 6 0 8 -7 5 -14 -4 -10 -1 -13 7 -10
20 8 55 -55 49 -87 -3 -16 0 -30 8 -34 9 -6 11 -2 7 13 -4 14 -2 19 7 15 9 -3
15 -30 17 -84 3 -70 1 -79 -14 -79 -14 0 -18 -9 -18 -40 0 -31 3 -38 15 -34
11 5 15 -1 15 -21 0 -31 -25 -62 -34 -42 -3 6 -5 1 -4 -13 2 -14 0 -30 -4 -35
-7 -11 29 -57 57 -72 17 -10 17 -11 -2 -17 -12 -4 -29 -23 -38 -42 -14 -31
-20 -35 -42 -29 -16 4 -22 2 -18 -5 3 -5 -1 -10 -10 -10 -9 0 -13 5 -10 10 3
6 1 10 -5 10 -7 0 -9 7 -6 16 4 9 1 23 -5 30 -8 10 -5 15 15 20 14 3 31 13 38
21 10 12 9 17 -5 24 -9 5 -14 16 -11 23 3 8 -4 21 -16 29 -13 9 -18 20 -14 31
4 10 1 16 -9 16 -8 0 -20 7 -27 15 -7 8 -16 12 -21 9 -12 -7 -11 3 0 25 8 15
5 16 -25 13 -31 -4 -34 -2 -34 22 0 14 5 26 10 26 6 0 10 -5 10 -11 0 -6 10
-9 23 -7 40 6 23 23 -25 26 -41 3 -48 6 -48 24 0 18 -4 20 -31 14 -17 -3 -35
-6 -40 -6 -4 0 -7 -21 -6 -47 1 -31 -3 -54 -13 -65 -25 -30 -35 -20 -35 35 0
38 5 55 18 65 10 8 16 19 14 25 -2 7 2 18 10 25 7 7 12 28 11 45 l-1 32 -4
-34 c-3 -22 -11 -35 -24 -38 -10 -3 -19 -13 -20 -22 0 -9 -3 -11 -5 -4 -4 8
-10 7 -22 -5 -14 -13 -15 -20 -6 -29 13 -14 17 -93 4 -93 -4 0 -11 8 -14 17
-6 14 -9 15 -15 4 -7 -10 -10 -9 -14 3 -9 24 -47 20 -47 -4 0 -11 7 -20 15
-20 8 0 15 -5 15 -11 0 -8 4 -9 13 0 8 6 17 7 21 3 4 -4 13 -7 19 -7 15 -1 10
-34 -9 -52 -18 -19 -18 -27 1 -19 26 10 16 -9 -12 -21 -43 -20 -61 -17 -35 7
20 19 21 24 9 52 -17 41 -43 52 -33 14 6 -24 4 -27 -16 -24 -17 2 -22 -1 -20
-14 2 -11 -3 -18 -14 -18 -10 0 -14 5 -11 14 4 10 -1 12 -16 9 -21 -4 -21 -4
3 17 18 16 20 20 7 16 -10 -3 -24 -6 -31 -6 -7 0 -17 -12 -23 -27 -10 -25 -11
-26 -12 -6 -1 12 -5 23 -11 25 -6 2 -4 15 5 32 19 36 19 46 -1 46 -14 0 -15
17 -10 143 5 123 9 177 15 197 1 3 5 -1 9 -8 5 -7 16 -10 25 -6 28 10 19 24
-14 24 -26 0 -29 3 -20 14 9 11 9 15 0 18 -8 3 -9 9 -5 17 6 9 11 10 15 2 9
-14 45 -4 58 18 10 16 8 17 -14 13 -39 -7 -20 14 38 44 27 13 54 22 60 19 5
-4 8 -1 7 7 -2 10 13 13 67 11 46 -1 64 1 54 7 -21 12 -191 18 -179 6 10 -10
-35 -51 -73 -65 -24 -9 -25 -8 -29 35 -3 48 3 58 55 84 40 20 33 33 -8 13 -38
-18 -55 -12 -35 12 10 12 9 15 -5 15 -12 0 -15 4 -8 13 5 6 9 63 9 126 -1 92
-4 115 -16 119 -12 4 -13 3 -2 -10 15 -19 7 -127 -14 -177 -12 -29 -17 -33
-25 -21 -8 11 -9 8 -6 -15 3 -16 9 -38 12 -47 10 -27 -23 -23 -45 5 -11 12
-22 42 -26 66 -4 30 -15 52 -33 67 -34 30 -39 23 -7 -9 23 -23 30 -48 29 -94
-1 -7 3 -13 8 -13 5 0 9 -7 9 -15 0 -9 12 -27 26 -40 30 -28 25 -44 -10 -38
-25 5 -41 27 -30 44 3 5 0 9 -6 9 -8 0 -10 -9 -6 -25 6 -24 4 -25 -37 -25 -24
0 -48 5 -55 12 -19 19 -13 -5 7 -29 22 -26 36 -30 27 -8 -4 11 2 15 25 15 22
0 32 -6 41 -25 13 -28 4 -45 -14 -27 -25 25 -31 11 -7 -15 25 -27 26 -32 23
-138 -2 -60 -3 -148 -4 -195 0 -47 -6 -102 -12 -123 -13 -44 -12 -47 25 -40
23 5 40 33 19 33 -9 0 -7 136 3 168 4 12 3 22 -2 22 -5 0 -10 18 -11 39 -2 31
2 43 20 56 21 15 21 16 3 13 -18 -3 -20 2 -19 47 1 53 12 115 21 115 2 0 11
-7 19 -15 12 -12 14 -32 10 -97 -4 -46 -8 -136 -11 -201 -2 -65 -8 -123 -11
-129 -4 -7 -7 -37 -6 -67 0 -39 -1 -48 -6 -31 -8 26 -49 41 -61 21 -4 -6 -35
-11 -69 -12 -44 -1 -62 -6 -62 -15 0 -16 -35 -13 -52 4 -7 7 -12 42 -12 82 -1
72 -14 67 -15 -6 -1 -22 -8 -55 -17 -73 -9 -17 -13 -38 -10 -46 3 -8 1 -17 -4
-20 -6 -4 -10 -2 -10 3 0 6 -9 8 -20 5 -12 -3 -22 1 -26 11 -8 22 -24 20 -24
-3 0 -11 9 -21 21 -24 16 -4 20 -11 15 -24 -4 -10 -10 -39 -13 -65 -5 -39 -3
-48 10 -48 8 0 17 8 19 18 5 21 28 -106 31 -165 1 -33 5 -43 18 -43 29 0 39
25 42 110 3 71 7 86 25 101 12 9 22 24 22 33 0 11 9 16 27 16 17 0 36 10 51
28 l23 27 -7 -40 c-3 -22 -6 -67 -5 -101 1 -37 -4 -77 -15 -103 -9 -22 -14
-48 -10 -56 7 -20 36 -19 36 1 0 54 63 97 158 107 56 7 60 3 36 -31 -22 -32
-12 -72 30 -118 20 -21 39 -47 42 -57 3 -9 9 -15 14 -12 20 12 31 -27 29 -102
-3 -139 -1 -184 11 -198 8 -9 10 -28 6 -51 -4 -19 -2 -51 4 -70 10 -29 9 -44
-3 -77 -25 -67 -31 -143 -15 -166 11 -15 13 -35 8 -73 -4 -29 -5 -59 -2 -67 4
-10 1 -13 -12 -8 -10 4 -19 1 -22 -8 -4 -8 -13 -15 -21 -15 -21 0 -11 -23 15
-35 12 -5 20 -15 18 -21 -7 -18 42 -36 65 -24 11 6 25 7 32 3 13 -8 20 -9 92
-17 27 -2 51 -9 53 -15 2 -6 15 -11 28 -11 14 0 22 -4 19 -10 -3 -5 -2 -10 3
-10 6 0 12 7 16 15 3 8 14 15 24 15 10 0 23 5 30 12 6 6 15 9 19 5 3 -4 -2
-14 -13 -23 -10 -8 -14 -13 -7 -10 6 4 18 -1 27 -10 9 -8 20 -13 25 -9 6 3 14
-2 19 -10 8 -15 10 -14 23 1 8 10 9 15 2 11 -6 -4 -14 -3 -18 3 -3 5 -15 10
-26 10 -11 0 -19 7 -19 16 0 11 6 14 21 9 18 -6 20 -4 14 14 -4 12 -2 21 4 21
6 0 11 -6 11 -14 0 -8 5 -18 11 -22 8 -4 9 1 4 17 -9 29 -35 60 -35 41 0 -7
-5 -12 -11 -12 -6 0 -9 7 -5 15 7 19 -24 20 -43 3 -11 -11 -13 -10 -8 4 4 13
2 15 -11 11 -12 -5 -10 4 11 40 15 26 32 73 38 104 6 32 12 59 13 61 2 1 41
-7 88 -18 77 -18 88 -19 114 -6 50 26 76 106 34 106 -11 0 -20 6 -20 14 0 8 8
13 18 12 13 -1 16 5 12 24 -2 14 -5 50 -5 80 0 35 -5 59 -14 66 -10 8 -11 15
-3 31 15 27 7 33 -44 33 -48 0 -70 26 -30 36 32 8 38 35 30 150 l-7 97 34 -7
c19 -4 77 -10 129 -12 71 -3 91 -2 77 6 -9 6 -25 9 -35 6 -9 -2 -35 -1 -57 4
l-40 8 55 2 c84 4 114 0 128 -18 6 -9 12 -11 12 -6 0 6 -6 16 -12 23 -11 10
-8 11 13 6 17 -4 30 -1 39 10 13 15 10 16 -24 9 -31 -5 -38 -4 -34 7 3 10 22
14 59 14 30 0 60 4 67 9 21 13 -16 35 -59 36 -19 0 -73 11 -120 25 -88 26
-145 32 -151 16 -2 -6 -21 -6 -50 0 -44 10 -48 13 -53 47 -3 20 -13 60 -22 89
-10 29 -15 54 -12 57 2 3 38 -2 79 -10 41 -8 118 -19 170 -24 52 -6 116 -12
142 -15 32 -3 51 -1 61 9 10 10 18 11 32 3 10 -5 78 -11 150 -12 72 -1 137 -5
144 -9 6 -4 9 -16 6 -27 -4 -11 -2 -19 4 -19 6 0 11 5 11 10 0 6 10 14 23 19
20 8 18 10 -19 20 -36 10 -94 55 -83 65 2 2 23 6 46 7 34 3 48 -2 73 -25 18
-15 30 -30 27 -32 -2 -3 -25 4 -51 15 -25 11 -46 17 -46 12 0 -13 83 -41 123
-41 42 0 51 -19 10 -21 -25 -1 -24 -2 7 -8 19 -4 44 -12 55 -19 18 -10 17 -11
-10 -11 -94 2 -300 -11 -302 -18 -2 -4 13 -19 32 -32 19 -13 35 -27 35 -32 0
-10 -133 -12 -167 -3 -17 5 -23 14 -23 33 0 45 -11 71 -31 71 -26 0 -30 -12
-23 -76 5 -43 11 -58 26 -62 38 -9 24 -25 -75 -86 -15 -9 -37 -32 -50 -51 -12
-19 -27 -33 -33 -31 -17 6 -25 -74 -12 -120 14 -54 43 -91 96 -125 39 -24 42
-29 22 -29 -13 0 -20 -3 -16 -7 3 -4 44 -6 91 -4 78 2 89 -1 164 -35 69 -31
85 -35 104 -25 21 11 21 11 -6 8 -15 -3 -25 -2 -22 1 4 5 -32 35 -45 38 -3 0
-24 4 -47 9 l-43 8 58 27 c32 15 70 43 85 61 14 18 28 31 31 28 3 -3 9 -27 13
-54 5 -40 3 -50 -12 -61 -18 -13 -18 -14 3 -14 15 0 27 -12 41 -42 27 -58 56
-87 123 -126 70 -39 80 -40 76 -6 -2 20 -12 29 -43 40 -44 14 -105 74 -105
101 0 13 11 6 43 -23 44 -43 86 -74 99 -74 19 0 6 44 -18 63 l-27 21 24 8 c23
9 22 10 -17 27 -44 20 -86 66 -82 90 4 21 55 32 84 19 25 -12 30 -28 14 -44
-6 -6 -3 -10 10 -11 20 -2 20 5 20 283 0 203 -3 284 -11 284 -8 0 -7 5 1 15
20 24 2 31 -30 12 -33 -20 -61 -12 -80 23 -15 28 5 35 31 9 14 -14 28 -19 42
-15 12 3 28 6 35 6 16 0 16 62 0 78 -9 9 -9 12 1 12 10 0 11 3 2 14 -12 14 -8
255 4 289 6 13 2 17 -14 17 -28 0 -29 40 -1 47 38 10 20 24 -27 21 l-46 -3 2
-77 c2 -75 -10 -108 -30 -77 -4 7 -10 11 -13 9 -2 -3 -6 -67 -7 -143 -2 -76
-6 -140 -10 -143 -4 -2 -5 -14 -2 -27 5 -20 4 -20 -10 -7 -13 13 -14 30 -6
117 6 67 5 111 -1 129 -8 19 -7 31 0 38 15 15 12 36 -5 36 -12 0 -15 -15 -15
-79 0 -104 -8 -138 -32 -144 -16 -4 -17 -3 -7 9 6 8 14 55 17 104 4 79 3 90
-12 90 -9 0 -16 -4 -16 -10 0 -5 -5 -10 -11 -10 -8 0 -10 12 -6 36 l6 37 -46
-7 c-25 -3 -54 -6 -65 -6 -16 0 -18 -7 -16 -47 3 -95 -1 -143 -14 -138 -9 4
-12 26 -11 71 l1 66 -32 -5 c-29 -5 -32 -3 -31 21 0 25 -1 26 -60 23 -33 -1
-62 -5 -64 -7 -2 -2 3 -12 12 -22 20 -22 22 -68 5 -75 -10 -4 -10 -6 0 -6 7
-1 12 -15 12 -36 0 -28 -4 -35 -19 -35 -21 0 -31 26 -31 86 0 37 -11 54 -34
54 -8 0 9 -117 18 -123 7 -6 5 -7 -6 -4 -9 3 -19 1 -22 -6 -2 -7 -5 16 -5 50
-1 51 -5 65 -21 75 -11 7 -20 16 -20 21 0 4 5 5 10 2 6 -3 10 -1 10 4 0 6 -4
11 -10 11 -5 0 -10 20 -10 45 0 42 -2 45 -27 46 l-28 1 25 7 c24 7 25 10 28
99 4 117 22 113 22 -4 0 -76 2 -85 18 -82 14 3 19 21 27 108 l10 105 3 -97 c2
-70 7 -99 18 -108 8 -7 17 -10 20 -7 12 11 24 84 25 152 1 64 2 67 10 30 4
-22 8 -68 8 -101 1 -44 5 -63 15 -67 29 -11 41 24 45 132 4 115 18 107 20 -11
1 -47 5 -68 14 -68 9 0 8 -3 -2 -9 -21 -14 -3 -31 33 -31 50 0 56 13 56 130 0
58 5 112 10 120 7 10 10 -19 10 -92 0 -67 4 -109 11 -114 8 -4 7 -9 -2 -16
-10 -6 -3 -8 21 -6 l35 3 3 125 c4 168 22 184 22 18 0 -124 0 -126 24 -130 48
-10 56 9 56 138 0 65 5 126 10 134 10 16 13 -30 10 -183 -1 -74 0 -78 18 -73
12 4 26 0 35 -9 17 -16 38 -19 75 -9 39 11 23 24 -20 17 -39 -6 -42 -5 -29 10
9 12 15 59 19 147 3 84 8 128 15 121 5 -5 8 -61 6 -130 -4 -106 -2 -121 12
-121 14 0 16 20 18 156 1 132 -1 155 -13 151 -9 -4 -16 2 -20 15 -6 25 0 38
19 38 9 0 13 9 10 28 -3 28 -4 29 -45 18 -23 -6 -23 -6 -7 7 14 12 17 31 18
113 0 85 15 212 18 162 0 -10 6 -18 11 -18 15 0 12 54 -5 86 -13 25 -13 30 0
44 24 27 19 41 -12 34 -25 -7 -27 -5 -15 9 9 10 15 61 19 149 3 73 10 141 14
150 10 18 1 78 -11 78 -4 0 -25 -14 -46 -31 -30 -24 -38 -36 -36 -56 5 -35
-21 -51 -28 -17 l-5 25 -42 -31 c-35 -26 -42 -36 -37 -55 3 -12 1 -26 -5 -29
-7 -5 -11 3 -11 18 0 14 -4 26 -8 26 -10 0 -78 -69 -74 -76 1 -2 2 -12 2 -21
0 -15 -2 -14 -14 2 -14 19 -15 19 -33 2 -11 -9 -23 -17 -27 -17 -4 0 -17 -10
-29 -23 -12 -13 -41 -34 -64 -47 -24 -13 -43 -30 -43 -37 0 -8 -9 -12 -22 -9
-18 2 -26 -5 -41 -38 -12 -27 -21 -36 -26 -28 -4 7 -15 10 -24 6 -19 -7 -21
-16 -7 -30 7 -7 4 -17 -11 -30 -20 -18 -22 -18 -33 -2 -7 10 -15 15 -18 12 -3
-3 -5 6 -4 20 0 14 4 26 9 26 4 0 7 7 7 15 0 8 9 19 21 26 15 8 18 14 10 22
-8 8 -18 4 -36 -13 -14 -13 -25 -19 -25 -13 0 6 17 23 37 39 25 19 35 23 30
11 -11 -28 12 -30 44 -2 18 14 36 24 42 22 6 -2 24 12 40 30 16 18 34 33 41
33 16 0 78 78 67 84 -4 3 -27 -9 -49 -26 -29 -22 -38 -34 -29 -40 6 -4 8 -8 2
-8 -5 0 -16 4 -23 9 -9 6 0 17 34 42 25 19 56 43 68 54 11 12 57 50 101 85 44
36 88 71 97 80 9 8 60 47 112 85 52 39 95 77 95 86 1 19 -25 33 -34 19z m-384
-692 c0 -13 3 -17 6 -10 2 6 12 12 20 12 13 0 13 -2 2 -17 -12 -14 -12 -16 1
-11 11 4 16 0 16 -13 0 -10 -2 -16 -5 -14 -8 9 -31 -17 -24 -28 3 -5 1 -7 -5
-3 -6 3 -13 2 -17 -4 -3 -5 -1 -10 4 -10 21 0 10 -15 -20 -29 -21 -9 -27 -17
-20 -24 7 -7 16 -6 27 4 12 9 15 10 10 2 -4 -7 -2 -13 3 -13 6 0 11 6 11 14 0
8 4 17 10 21 5 3 5 -7 -1 -25 -6 -16 -14 -28 -19 -25 -4 3 -10 -4 -13 -15 -7
-28 -27 -25 -27 4 0 30 -19 38 -51 20 -36 -20 -37 -18 -28 33 6 29 18 55 33
68 12 11 21 25 20 30 -5 13 6 27 31 42 29 17 35 16 36 -9z m-707 -428 c36 0
51 -29 49 -90 -1 -30 1 -45 3 -32 3 12 10 22 15 22 5 0 9 -10 9 -22 0 -13 3
-47 6 -75 6 -45 4 -53 -10 -53 -9 0 -16 5 -16 11 0 5 -13 22 -29 37 -32 29
-55 77 -47 98 3 7 -1 15 -9 18 -7 2 -15 13 -18 23 -2 10 -3 6 -2 -9 2 -32 -14
-38 -22 -8 -3 11 -9 20 -14 20 -23 0 -6 29 19 32 20 2 28 9 31 28 2 14 6 19 8
13 3 -7 15 -13 27 -13z m1062 -982 c-13 -83 -19 -88 -89 -88 -52 0 -67 4 -82
20 -27 30 -25 74 4 78 12 2 24 9 27 15 3 8 30 12 75 12 l71 0 -6 -37z m-459
-192 c-2 -6 -21 -10 -43 -9 -35 1 -36 1 -9 -5 29 -7 30 -9 27 -57 -4 -68 9
-82 86 -88 57 -5 62 -4 50 11 -11 14 -10 15 5 9 10 -4 23 -7 28 -7 4 0 6 -7 3
-15 -5 -11 3 -17 27 -22 19 -4 37 -6 42 -5 18 5 4 -19 -28 -46 -74 -66 -190
-67 -273 -4 -42 32 -62 70 -62 117 0 44 27 105 46 105 8 0 14 4 14 9 0 8 25
14 78 17 7 0 11 -4 9 -10z"/>
<path d="M5102 5713 c-3 -905 -5 -872 41 -873 15 0 17 15 18 168 0 92 3 161 6
155 2 -7 15 -13 28 -13 30 0 49 -24 41 -53 -3 -13 -3 -27 1 -31 4 -4 9 -30 11
-59 3 -51 24 -89 39 -73 5 4 10 177 13 384 l6 377 3 -330 c4 -430 1 -398 29
-400 13 -1 25 1 27 5 2 4 5 261 5 572 l1 566 -87 153 c-149 263 -175 309 -177
309 -1 0 -3 -385 -5 -857z m118 455 c0 -10 7 -18 15 -18 17 0 18 -2 19 -92 1
-66 -7 -87 -18 -50 -3 9 -3 -6 0 -34 3 -42 1 -53 -12 -58 -11 -4 -13 -10 -6
-19 14 -18 21 -106 8 -110 -6 -2 -23 4 -38 12 l-28 16 0 220 1 220 29 -35 c16
-19 30 -43 30 -52z m-7 -400 c15 -11 20 -34 25 -118 9 -160 5 -258 -12 -275
-8 -8 -12 -23 -9 -34 5 -19 -27 -61 -46 -61 -14 0 -16 35 -13 283 3 259 0 246
55 205z"/>
<path d="M4028 6395 c-10 -11 -107 -25 -170 -26 -45 0 -46 -1 -60 -44 -13 -37
-13 -53 -2 -107 8 -35 14 -85 15 -113 l1 -50 10 35 c5 19 14 40 20 45 7 7 9 5
6 -5 -12 -38 96 -54 127 -19 18 19 18 22 3 47 -15 23 -24 27 -68 28 -27 1 -52
3 -55 6 -14 13 21 84 61 123 l44 44 83 -39 c132 -62 176 -123 177 -247 0 -40
1 -42 22 -34 12 4 30 19 39 32 22 30 35 74 21 65 -6 -3 -13 -2 -17 4 -3 5 -1
10 4 10 22 0 9 26 -22 45 -21 14 -32 28 -31 43 1 18 -10 28 -51 47 -28 14 -66
42 -83 64 -27 33 -64 56 -74 46z"/>
<path d="M5696 5367 c-4 -15 -6 -39 -3 -54 3 -14 -1 -40 -8 -57 -21 -51 -29
-136 -13 -136 7 0 20 -5 28 -10 13 -9 13 -11 0 -20 -10 -6 -11 -10 -2 -10 14
0 17 -77 3 -99 -11 -17 -2 -53 13 -48 6 2 12 13 14 25 2 12 8 22 13 22 5 0 9
22 9 49 0 28 5 53 10 56 6 4 10 -16 10 -53 0 -45 4 -61 16 -66 26 -10 27 -8
21 41 -7 62 2 113 19 113 10 0 13 7 8 25 -3 14 -1 31 4 38 8 9 8 25 0 54 -8
33 -16 44 -41 53 -22 7 -28 13 -20 21 16 16 5 39 -17 39 -11 0 -20 -9 -22 -22
-6 -43 -27 -31 -30 19 -3 43 -4 45 -12 20z"/>
<path d="M5780 4077 c0 -18 -4 -37 -10 -43 -10 -10 -14 -43 -9 -74 6 -38 -2
-62 -22 -67 -11 -3 -25 -17 -30 -30 -5 -13 -14 -21 -19 -18 -13 8 -8 -18 5
-27 6 -4 -2 -8 -17 -8 -16 0 -28 -4 -28 -10 0 -5 5 -10 11 -10 6 0 9 -9 6 -20
-3 -11 -1 -20 4 -20 4 0 22 -13 39 -30 33 -33 46 -37 53 -17 4 10 6 10 6 0 1
-15 33 -17 47 -4 5 5 27 14 49 20 30 8 41 8 48 -2 6 -8 7 -6 3 6 -3 9 -2 17 2
17 4 0 14 13 23 28 14 25 14 30 1 50 -12 18 -12 28 -4 47 8 18 8 26 -4 35 -8
7 -14 25 -14 41 0 33 -39 67 -52 46 -4 -7 -2 -13 7 -15 16 -4 18 -12 9 -37 -6
-14 -9 -13 -20 7 -26 46 -27 51 -10 63 10 8 13 16 7 19 -5 4 -12 2 -16 -4 -8
-12 -55 -13 -55 -1 0 5 6 11 13 14 9 3 9 7 -1 19 -9 11 -9 17 -2 20 13 4 3 38
-11 38 -5 0 -9 -15 -9 -33z"/>
<path d="M4680 3184 c0 -9 4 -13 8 -10 12 7 95 -16 111 -31 22 -23 4 -27 -53
-13 -70 17 -95 7 -31 -12 28 -8 49 -19 47 -24 -2 -5 2 -10 9 -13 7 -2 9 1 5 8
-9 13 13 14 34 1 11 -7 9 -11 -12 -19 -27 -10 -71 -4 -63 9 2 4 -12 7 -33 8
l-37 2 30 -20 c17 -11 38 -20 47 -20 9 0 20 -4 23 -10 3 -5 1 -10 -6 -10 -8 0
-7 -5 2 -17 12 -15 12 -16 -4 -10 -10 4 -25 7 -33 7 -8 0 -15 10 -15 23 -1 18
-2 18 -6 4 -3 -11 -10 -16 -20 -13 -8 3 -17 6 -19 6 -2 0 -4 5 -4 10 0 6 7 10
16 10 8 0 12 5 9 10 -4 7 -12 7 -25 0 -24 -13 -33 -13 -25 0 3 6 0 10 -9 10
-8 0 -21 2 -28 5 -12 5 -13 -2 -4 -40 6 -25 16 -45 23 -45 7 0 13 -5 13 -11 0
-5 -4 -7 -10 -4 -6 4 -10 -9 -10 -33 0 -52 10 -102 21 -102 5 0 6 6 3 14 -4
12 2 14 33 10 21 -3 47 -10 58 -17 11 -7 30 -12 43 -11 12 1 22 -2 22 -5 0 -4
12 -8 27 -9 15 -1 54 -9 88 -17 33 -7 86 -19 118 -26 52 -11 58 -15 52 -33
-10 -33 -10 -41 -3 -44 25 -11 78 -23 109 -26 61 -5 99 -27 99 -57 0 -26 -1
-26 -46 -18 -25 5 -63 13 -85 19 -21 6 -54 11 -74 12 -19 1 -35 4 -35 8 0 3
-19 7 -42 7 l-43 1 35 -8 c19 -5 67 -18 105 -28 77 -22 312 -72 334 -72 29 0
-3 16 -62 30 -55 14 -62 19 -65 43 -3 26 -2 26 45 22 26 -2 79 -11 118 -19 38
-9 74 -16 80 -16 17 1 -67 29 -108 35 -21 4 -49 12 -62 19 -13 7 -38 11 -57
10 -18 -1 -38 2 -44 6 -5 5 -26 11 -45 14 -48 6 -122 27 -134 39 -7 7 -6 8 1
4 7 -4 15 0 18 9 3 8 2 12 -3 9 -5 -3 -13 0 -17 6 -5 9 6 11 42 6 27 -3 58 -8
69 -12 13 -4 12 -1 -5 8 -14 8 -63 22 -110 32 -47 9 -86 17 -86 18 -1 1 -5 12
-9 25 -7 23 -5 23 47 17 46 -5 220 -39 255 -50 8 -3 9 -13 3 -34 -7 -24 -5
-31 6 -31 9 0 14 11 14 31 0 29 2 31 28 26 27 -6 124 -26 232 -48 30 -6 72
-17 94 -25 21 -7 43 -11 49 -7 14 9 -11 20 -63 28 -25 3 -58 10 -75 15 -16 4
-42 11 -57 14 -19 4 -28 13 -28 27 0 28 21 33 82 19 103 -24 128 -27 128 -19
0 5 -3 9 -7 9 -5 0 -52 9 -106 20 -55 11 -101 20 -103 20 -2 0 -4 -10 -4 -22
0 -46 -9 -47 -120 -22 -58 14 -136 31 -174 39 -38 9 -75 20 -82 26 -8 7 -13 6
-16 -1 -3 -11 -68 -3 -66 9 3 17 -15 39 -28 34 -12 -4 -12 -8 3 -20 20 -16 24
-17 -102 14 -33 8 -70 15 -82 15 -13 0 -21 4 -18 8 3 5 0 12 -6 16 -8 5 -9 3
-4 -6 6 -10 4 -12 -9 -7 -10 4 -20 7 -22 7 -2 0 -4 7 -4 16 0 13 -3 14 -15 4
-21 -17 -68 -4 -104 31 -37 35 -33 54 7 33 15 -7 36 -14 47 -14 11 0 32 -6 46
-14 14 -7 57 -19 95 -25 119 -21 213 -44 209 -51 -2 -4 7 -5 22 -2 18 3 30 -1
40 -13 7 -11 13 -13 13 -7 0 7 12 12 28 13 27 1 -27 18 -121 38 -46 10 -51 15
-43 37 5 12 14 15 36 10 17 -3 30 -2 30 3 0 5 -42 16 -92 26 -105 20 -128 29
-128 51 0 11 9 14 35 12 44 -4 47 15 3 22 -44 7 -45 35 -1 35 17 0 35 3 39 8
4 4 -1 7 -10 7 -25 0 -14 23 15 30 l24 6 -24 7 c-18 4 -29 0 -43 -15 -19 -22
-16 -22 -130 6 -51 12 -58 12 -58 0z"/>
<path d="M7889 2883 c-9 -10 -5 -14 20 -19 17 -4 36 -13 43 -22 9 -11 9 -14 1
-9 -8 5 -10 0 -7 -17 3 -19 -1 -26 -18 -32 -13 -4 -26 -11 -29 -16 -4 -6 -27
-13 -53 -15 -29 -4 -46 -11 -47 -19 -3 -31 -4 -34 -14 -34 -25 0 -103 35 -99
44 3 6 -1 4 -7 -5 -11 -15 -14 -15 -31 5 -14 16 -17 17 -12 4 3 -10 1 -18 -5
-18 -6 0 -11 6 -11 13 0 8 -4 7 -10 -3 -5 -8 -10 -10 -10 -4 0 6 -24 15 -52
19 -38 5 -48 9 -34 14 14 5 16 10 8 15 -7 4 -10 13 -6 19 3 7 -2 3 -10 -7 -9
-11 -16 -25 -16 -32 0 -13 80 -44 113 -44 11 0 51 -9 89 -21 58 -17 73 -26 90
-55 16 -27 26 -34 51 -34 18 0 48 -4 67 -9 19 -5 47 -12 62 -15 l28 -6 -2 148
-1 148 -44 10 c-34 8 -46 7 -54 -3z"/>
<path d="M4688 2831 c21 -13 -15 -23 -39 -11 -16 9 -19 7 -19 -10 0 -12 4 -19
9 -16 15 10 72 -6 78 -22 3 -8 -2 -27 -11 -43 -28 -47 -23 -120 6 -91 9 9 9
12 -2 12 -7 0 -11 3 -7 6 3 3 23 -7 44 -24 21 -16 50 -33 65 -36 15 -3 35 -17
44 -31 9 -14 26 -25 38 -25 17 0 18 2 6 10 -26 16 18 24 69 12 25 -6 78 -18
116 -27 173 -38 201 -53 189 -99 -7 -31 -10 -31 -105 -6 -78 21 -143 27 -104
10 11 -5 41 -12 68 -15 26 -3 47 -11 47 -17 0 -6 9 -8 20 -5 13 3 18 1 13 -6
-13 -21 -10 -45 4 -40 7 3 11 8 9 12 -3 4 -1 13 5 21 6 10 9 11 9 3 0 -7 5
-13 11 -13 5 0 7 6 3 13 -6 10 -4 10 7 0 7 -7 22 -13 34 -13 25 0 158 -31 167
-39 4 -3 3 -22 -2 -41 l-8 -35 -1 31 c-1 27 -4 30 -38 33 -37 2 -85 2 -148 0
-31 -1 -162 32 -186 47 -8 5 -23 7 -34 5 -20 -3 -20 -3 0 12 11 9 17 19 12 23
-4 4 -7 2 -7 -4 0 -7 -5 -12 -10 -12 -6 0 -9 14 -8 32 2 25 -1 33 -17 36 -14
2 -16 0 -7 -6 7 -5 10 -16 7 -25 -3 -9 -7 -24 -10 -33 -4 -13 -8 -14 -20 -4
-8 6 -18 9 -23 6 -5 -3 -49 6 -98 19 -113 31 -115 31 -101 0 7 -13 14 -20 15
-15 5 13 45 13 96 -1 22 -6 66 -17 96 -25 84 -22 192 -54 219 -65 24 -10 24
-17 6 -75 -5 -16 -2 -23 12 -26 15 -4 19 1 19 34 2 64 -16 65 274 -13 88 -24
138 -34 200 -43 l45 -6 -34 15 c-18 8 -43 15 -55 15 -17 0 -18 2 -6 10 11 7 5
10 -23 10 -21 0 -36 4 -33 9 3 5 -2 11 -12 14 -9 2 -26 8 -36 13 -14 5 -17 4
-12 -4 4 -7 2 -12 -4 -12 -6 0 -15 10 -20 23 l-9 22 0 -22 c-1 -13 -6 -23 -12
-23 -8 0 -9 11 -5 31 3 17 6 35 6 39 0 4 17 4 38 -1 48 -11 62 -11 62 1 0 5
-16 12 -35 16 -19 3 -38 10 -41 15 -3 5 -9 7 -14 4 -10 -6 -136 22 -162 36
-10 5 -25 9 -33 9 -10 0 -15 10 -15 30 0 22 5 30 18 30 41 0 228 -39 270 -56
6 -3 12 -2 12 4 0 12 -89 38 -235 66 -91 18 -234 54 -262 66 -13 5 -23 18 -23
30 0 11 -4 20 -9 20 -5 0 -16 3 -24 6 -9 3 -16 -3 -20 -15 -7 -27 -27 -27 -34
-1 -3 11 -12 20 -19 20 -8 0 -14 5 -14 10 0 6 -5 10 -11 10 -6 0 -9 -9 -6 -19
3 -14 1 -18 -10 -14 -8 3 -12 11 -9 18 5 15 -28 27 -41 15 -4 -4 -19 -11 -31
-15 -21 -6 -23 -5 -13 13 13 24 6 32 -28 32 -21 0 -23 2 -11 10 11 7 7 10 -20
11 -19 1 -41 1 -49 0 -7 -2 -10 2 -7 8 8 12 54 5 110 -15 21 -8 41 -13 43 -10
3 3 16 1 29 -5 19 -7 26 -5 30 6 4 8 18 15 33 16 l26 1 -25 7 c-14 4 -35 4
-48 -1 -26 -9 -65 -5 -105 11 -16 6 -36 11 -45 11 -29 0 -40 13 -31 37 7 19
14 22 41 17 70 -11 118 -27 118 -39 0 -7 11 -10 28 -7 15 2 51 -1 79 -6 37 -6
53 -6 56 2 3 6 -7 12 -22 13 -44 2 -131 26 -131 35 0 5 -4 7 -9 4 -10 -6 -108
15 -152 32 -15 6 -31 8 -35 4 -5 -4 -3 0 4 9 10 14 10 18 -4 23 -22 9 -31 7
-16 -3z"/>
</g>
</svg>
